<svg width="64" height="64" viewBox="0 0 64 64" fill="none" xmlns="http://www.w3.org/2000/svg">
<rect x="16.5" y="4.5" width="31" height="59" rx="4.5" stroke="black"/>
<rect x="16.5" y="4.5" width="31" height="59" rx="4.5" stroke="black"/>
<path d="M29 1C29 0.447715 29.4477 0 30 0H34C34.5523 0 35 0.447715 35 1V4H29V1Z" fill="black"/>
<path d="M29 1C29 0.447715 29.4477 0 30 0H34C34.5523 0 35 0.447715 35 1V4H29V1Z" fill="black"/>
<path d="M19 10C19 8.34315 20.3431 7 22 7H42C43.6569 7 45 8.34315 45 10V58C45 59.6569 43.6569 61 42 61H22C20.3431 61 19 59.6569 19 58V10Z" fill="#7EDB62"/>
</svg>
